<?xml version="1.0" encoding="UTF-8"?>
<svg version="1.1" xmlns="http://www.w3.org/2000/svg" width="1024" height="1024">
<path d="M0 0 C337.92 0 675.84 0 1024 0 C1024 337.92 1024 675.84 1024 1024 C686.08 1024 348.16 1024 0 1024 C0 686.08 0 348.16 0 0 Z " fill="#0F0F0F" transform="translate(0,0)"/>
<path d="M0 0 C32.01 0 64.02 0 97 0 C105.08847871 27.73192702 105.08847871 27.73192702 108.45004272 40.55984497 C108.81759737 41.95996511 108.81759737 41.95996511 109.19257736 43.38837051 C109.44484715 44.34946606 109.69711693 45.3105616 109.95703125 46.30078125 C110.5026742 48.36961818 111.04863233 50.438372 111.59487915 52.50704956 C112.74399695 56.86074612 113.89139554 61.21489013 115.037323 65.56942749 C117.753996 75.8918127 120.48060879 86.21157412 123.20702553 96.53138924 C123.8137327 98.82791602 124.42033953 101.12446931 125.02684593 103.42104912 C130.11576951 122.68955017 135.25167612 141.94487305 140.4375 161.1875 C141.67072492 165.76508613 142.90375146 170.34272571 144.13660431 174.92041206 C144.48725759 176.22241555 144.83794 177.52441119 145.18865204 178.82639885 C149.48889824 194.79281908 153.75197739 210.76914665 158.01165771 226.74642944 C158.87276225 229.97621883 159.73429134 233.20589443 160.59625244 236.43545532 C164.72724602 251.91333328 168.84989875 267.39298841 172.90625 282.890625 C173.49558054 285.13593285 174.08501373 287.38121377 174.67456055 289.62646484 C175.71755149 293.59880475 176.75201686 297.57320382 177.78051758 301.54931641 C180.76803665 312.99412621 184.24266455 324.20647142 188.10710144 335.38577271 C189.42684011 339.24970196 190.7088122 343.12643659 192 347 C159.33 347 126.66 347 93 347 C93.80706555 342.96467225 94.31671117 341.04382419 96.25 337.6796875 C96.6934375 336.89722656 97.136875 336.11476563 97.59375 335.30859375 C98.0578125 334.50550781 98.521875 333.70242188 99 332.875 C99.91888799 331.26949848 100.83564837 329.66277686 101.75 328.0546875 C102.15734375 327.34812012 102.5646875 326.64155273 102.984375 325.91357422 C108.35268926 315.7989475 104.47029716 301.94188065 101.5 291.69921875 C101.13952072 290.40314094 100.78083343 289.10656355 100.42382812 287.80952454 C99.49361514 284.44696203 98.54120042 281.09113082 97.58300781 277.7364502 C96.41467468 273.63040506 95.27258633 269.51699523 94.12731934 265.40446949 C93.23827542 262.21340457 92.34386687 259.02407544 91.43945312 255.83732605 C91.11912109 254.70466812 90.79878906 253.57201019 90.46875 252.4050293 C90.18451172 251.40658493 89.90027344 250.40814056 89.60742188 249.37944031 C89 247 89 247 89 245 C58.64 245 28.28 245 -3 245 C-4.32 250.61 -5.64 256.22 -7 262 C-8.16674069 266.40350518 -9.34927878 270.79724685 -10.5625 275.1875 C-11.7158804 279.45632614 -12.85855661 283.72796953 -14 288 C-14.20077148 288.73943848 -14.40154297 289.47887695 -14.60839844 290.24072266 C-17.5301381 301.17341262 -20.15296786 316.27013467 -14.421875 326.71484375 C-13.95265625 327.46894531 -13.4834375 328.22304688 -13 329 C-11.94317064 330.79650401 -10.89811085 332.59937197 -9.85742188 334.40527344 C-9.13210594 335.65442866 -8.39421068 336.89638353 -7.64257812 338.12988281 C-5.64987349 341.47303095 -5 342.99147794 -5 347 C-33.38 347 -61.76 347 -91 347 C-89.97326386 341.86631928 -89.31905458 340.82436291 -86 337.125 C-75.3105736 324.31465566 -70.28524764 311.98576376 -66.05322266 295.94384766 C-64.65091823 290.65329708 -63.15649309 285.38864863 -61.67351055 280.1202774 C-59.89852986 273.81134174 -58.13644883 267.4989136 -56.38256836 261.18408203 C-56.10730883 260.19331067 -55.83204929 259.20253931 -55.54844856 258.18174458 C-52.65762913 247.77297144 -49.77711969 237.36135385 -46.8984375 226.94921875 C-46.33421914 224.90890199 -45.76998954 222.86858835 -45.20574951 220.82827759 C-41.87346342 208.77809475 -38.5425292 196.7275383 -35.21185303 184.6769104 C-32.55828741 175.07616705 -29.90429756 165.47554102 -27.25 155.875 C-26.97322166 154.87386547 -26.69644333 153.87273094 -26.41127777 152.841259 C-20.51618065 131.51878755 -14.62056384 110.19648932 -8.6796875 88.88671875 C-8.47925842 88.16777687 -8.27882935 87.44883499 -8.07232666 86.70810699 C-6.07605726 79.54860633 -4.07699757 72.38988951 -2.07519531 65.23193359 C-0.61974655 60.0275597 0.82718226 54.82087895 2.27038574 49.61309814 C2.94429069 47.19952173 3.63233515 44.7905133 4.32519531 42.38232422 C7.51062274 31.18684195 7.48564752 24.18265503 3.5 13.1875 C2.83987618 11.32819373 2.18345093 9.46756897 1.53125 7.60546875 C1.23798828 6.79231201 0.94472656 5.97915527 0.64257812 5.14135742 C0 3 0 3 0 0 Z " fill="#F6F6F6" transform="translate(494,312)"/>
<path d="M0 0 C62.37 0 124.74 0 189 0 C188.08886356 4.55568218 187.07523379 7.05708705 184.859375 11.0234375 C184.54106216 11.59738754 184.22274933 12.17133759 183.89479065 12.76268005 C182.85299629 14.63714241 181.8016153 16.50603263 180.75 18.375 C180.01922862 19.68548627 179.28900999 20.99628091 178.55932617 22.30737305 C173.65924699 31.09826863 168.69809429 39.85489578 163.72558594 48.60498047 C159.89804634 55.35814098 156.17983824 62.1653857 152.5 69 C147.79829746 77.73253696 142.98263647 86.39070474 138.08154297 95.01269531 C133.70345778 102.72615413 129.40211171 110.48030742 125.125 118.25 C124.78867554 118.86086456 124.45235107 119.47172913 124.10583496 120.10110474 C123.60050232 121.01894241 123.60050232 121.01894241 123.08496094 121.95532227 C122.40430907 123.19157572 121.72364501 124.42782247 121.04296875 125.6640625 C120.70600983 126.27610031 120.3690509 126.88813812 120.0218811 127.51872253 C116.5092615 133.89609545 112.97527372 140.26155064 109.4375 146.625 C108.51432983 148.28571533 108.51432983 148.28571533 107.57250977 149.97998047 C105.09739241 154.43162105 102.62143383 158.88279352 100.14550781 163.33398438 C98.28411407 166.68077228 96.42320439 170.0278288 94.5625 173.375 C93.95277344 174.47142822 93.34304688 175.56785645 92.71484375 176.69750977 C89.36714561 182.72222596 86.03167712 188.75336397 82.7109375 194.79296875 C82.3529155 195.44368347 81.99489349 196.09439819 81.62602234 196.76483154 C79.899456 199.90297607 78.17463208 203.04204887 76.45336914 206.18310547 C73.14335941 212.20262323 69.76604964 218.15112827 66.14868164 223.99194336 C64.86022842 226.09170581 64.86022842 226.09170581 64 229 C71.31038236 228.95803794 78.62002135 228.88542945 85.92993164 228.79248047 C88.41163408 228.76442406 90.89342334 228.7431341 93.37524414 228.72900391 C96.96284956 228.7073614 100.54942776 228.66060174 104.13671875 228.609375 C105.22893234 228.60814636 106.32114594 228.60691772 107.44645691 228.60565186 C123.33478418 228.31012246 135.10480834 222.42297686 146.15234375 211.265625 C148.26789253 208.67150599 149.67943913 205.95189753 151.25 203 C152.92578125 200.16796875 152.92578125 200.16796875 155 198 C159.14797788 197.06605278 162.82511239 197.32132369 167 198 C166.30649198 206.38783984 164.48455822 214.4863066 162.65625 222.68359375 C162.32343696 224.19044238 161.99096381 225.69736612 161.65881348 227.20436096 C160.96573851 230.34417318 160.26950593 233.48326215 159.57080078 236.62182617 C158.6746253 240.64801654 157.7850353 244.67562692 156.89759064 248.70374966 C156.21339537 251.807074 155.52648649 254.90979244 154.83866882 258.01231575 C154.50946306 259.49816061 154.18093818 260.98415649 153.85310364 262.47030449 C153.39626075 264.53866515 152.93594601 266.60622167 152.47460938 268.67358398 C152.08275452 270.43822243 152.08275452 270.43822243 151.6829834 272.23851013 C151 275 151 275 150 277 C88.29 277 26.58 277 -37 277 C-27.90418199 258.80836397 -27.90418199 258.80836397 -23.4375 251.1875 C-18.7512552 243.08606162 -14.15955026 234.93731748 -9.625 226.75 C-3.02776678 214.84552827 3.60939922 202.96406999 10.26611328 191.09277344 C13.17939139 185.89629258 16.08956527 180.69807374 19 175.5 C22.48676785 169.27258793 25.97412444 163.04551067 29.46484375 156.8203125 C35.52060086 146.01796688 41.55608874 135.20486987 47.5625 124.375 C52.68853683 115.13352737 57.8590756 105.91894464 63.07299805 96.72680664 C66.03759059 91.49316583 68.98090163 86.24829857 71.8984375 80.98828125 C72.22978699 80.39091156 72.56113647 79.79354187 72.90252686 79.17807007 C74.50836765 76.2814808 76.11184173 73.38361764 77.71289062 70.484375 C81.26358147 64.06896651 84.91110315 57.73423336 88.71923828 51.4675293 C90.23034312 49.01957133 90.23034312 49.01957133 90 46 C83.34720156 45.94898214 76.69445423 45.9141338 70.04150391 45.89013672 C67.7817191 45.88012481 65.5219471 45.86651128 63.26220703 45.84912109 C60.00029322 45.82466034 56.73855181 45.81346847 53.4765625 45.8046875 C52.47823395 45.79436493 51.4799054 45.78404236 50.45132446 45.77340698 C32.11274021 45.77052201 18.81984173 52.40047454 5.75 65 C3.1121053 67.66432651 1.01574694 70.38537134 -1.0625 73.5 C-2.48046875 75.5 -2.48046875 75.5 -4 77 C-7.875 77.5 -7.875 77.5 -11 77 C-12.3391981 73.20459904 -11.74292521 70.09294317 -11.11962891 66.16772461 C-11.01409195 65.48920944 -10.90855499 64.81069427 -10.79981995 64.11161804 C-10.44973728 61.87390846 -10.08832098 59.63819296 -9.7265625 57.40234375 C-9.48028627 55.84592824 -9.23463878 54.28941313 -8.98959351 52.73280334 C-8.47477967 49.47301609 -7.95478418 46.21411425 -7.43066406 42.95581055 C-6.75874849 38.7782485 -6.09598291 34.59930352 -5.43660927 30.41974545 C-4.80738649 26.43425366 -4.17329698 22.44954046 -3.5390625 18.46484375 C-3.41841053 17.70379774 -3.29775856 16.94275173 -3.17345047 16.15864372 C-2.83138808 14.00627952 -2.48583503 11.85450633 -2.13916016 9.70288086 C-1.94295074 8.47806503 -1.74674133 7.25324921 -1.54458618 5.99131775 C-1 3 -1 3 0 0 Z " fill="#F6F6F6" transform="translate(238,382)"/>
<path d="M0 0 C37.95 0 75.9 0 115 0 C113.61954566 3.45113584 112.41071599 6.18241834 110.5390625 9.29296875 C110.06726563 10.08896484 109.59546875 10.88496094 109.109375 11.70507812 C108.13045068 13.34220024 107.14873944 14.97765956 106.1640625 16.61132812 C101.42715709 24.62416404 96.8832556 33.14855393 96.86857224 42.64412689 C96.86281052 44.04529763 96.86281052 44.04529763 96.8569324 45.47477484 C96.85779888 46.49771218 96.85866537 47.52064952 96.85955811 48.57458496 C96.85658698 49.6639279 96.85361586 50.75327085 96.8505547 51.87562418 C96.84185861 55.53883529 96.84035866 59.20201375 96.83886719 62.86523438 C96.83423956 65.48671539 96.82921498 68.10819574 96.82382202 70.72967529 C96.81024253 77.86224639 96.80421408 84.99481185 96.79981136 92.12739372 C96.79704729 96.58393854 96.79280954 101.04048119 96.78830719 105.49702454 C96.77611313 117.84313572 96.76581532 130.18924517 96.7624321 142.53536224 C96.76221253 143.32552283 96.76199297 144.11568342 96.76176675 144.92978826 C96.76154847 145.72181641 96.76133019 146.51384456 96.7611053 147.32987356 C96.76066184 148.93475946 96.76021527 150.53964535 96.75976562 152.14453125 C96.7595442 152.94060628 96.75932277 153.73668131 96.75909463 154.55687982 C96.75515054 167.44279868 96.73770904 180.32866085 96.7144061 193.21455783 C96.69065787 206.45396994 96.6782286 219.69335367 96.67706418 232.93278742 C96.67614917 240.36222069 96.6704411 247.79158017 96.65224457 255.22099304 C96.63679639 261.5505359 96.63175066 267.87998217 96.63998267 274.20954031 C96.6438731 277.43536241 96.64138628 280.66095092 96.62892532 283.8867569 C96.61617365 287.3945184 96.62210066 290.90178725 96.63250732 294.4095459 C96.62445092 295.41463747 96.61639452 296.41972903 96.60809398 297.45527792 C96.68400109 308.45545524 99.33886123 317.94133526 104.9375 327.375 C105.58235352 328.50615234 105.58235352 328.50615234 106.24023438 329.66015625 C108.14493157 332.97242178 110.08512898 336.11857763 112.31640625 339.2265625 C114 342 114 342 114 347 C78.03 347 42.06 347 5 347 C6.86119536 341.41641391 8.49185999 336.67303877 11 331.5 C16.49348236 319.79056737 18.14949966 309.74009181 18.14717102 296.86846924 C18.15084771 295.76754149 18.1545244 294.66661375 18.1583125 293.53232455 C18.16930029 289.85390168 18.17318479 286.1755071 18.17700195 282.49707031 C18.18327016 279.85529414 18.189905 277.21352092 18.19691467 274.57174683 C18.21661093 266.65505046 18.22673427 258.73835294 18.23564246 250.82163823 C18.24003455 247.08745881 18.24539877 243.35328079 18.25063133 239.61910248 C18.26763292 227.1973411 18.28212714 214.77558057 18.28938007 202.35380936 C18.29128973 199.13561248 18.29321011 195.9174156 18.29516602 192.69921875 C18.29564976 191.8994245 18.2961335 191.09963025 18.2966319 190.27559981 C18.30493277 177.31878545 18.33027542 164.36206338 18.36274669 151.40528932 C18.39585694 138.08439009 18.41383221 124.76353773 18.41702431 111.44259715 C18.41918519 103.970719 18.42787235 96.49897566 18.45348549 89.02713776 C18.47524637 82.66473607 18.48321636 76.302502 18.47351871 69.94006732 C18.46899015 66.69794891 18.47298142 63.45624627 18.49028015 60.21416092 C18.50803244 56.68897403 18.50087554 53.16465371 18.48774719 49.63946533 C18.49871644 48.62932035 18.50968568 47.61917536 18.52098733 46.57841992 C18.43382304 36.83211132 15.61401558 27.97962504 10.546875 19.6484375 C9.928125 18.61332031 9.309375 17.57820313 8.671875 16.51171875 C8.03765625 15.47660156 7.4034375 14.44148438 6.75 13.375 C5.47033607 11.25999989 4.19409958 9.14292089 2.921875 7.0234375 C2.36081055 6.10481934 1.79974609 5.18620117 1.22167969 4.23974609 C0 2 0 2 0 0 Z " fill="#F7F7F7" transform="translate(686,312)"/>
<path d="M0 0 C0.99 0.33 1.98 0.66 3 1 C3.81582642 2.82229614 3.81582642 2.82229614 4.44775391 5.25439453 C4.69357712 6.17441254 4.93940033 7.09443054 5.19267273 8.04232788 C5.45135635 9.06218781 5.71003998 10.08204773 5.9765625 11.1328125 C6.40090324 12.74030869 6.40090324 12.74030869 6.83381653 14.38027954 C7.77590921 17.95889662 8.70031672 21.54184862 9.625 25.125 C10.61409172 28.90271391 11.60739822 32.6793058 12.60063171 36.45593262 C13.30000447 39.11532079 13.99715131 41.77527898 14.69270325 44.43566895 C17.32809812 54.50664841 20.03377813 64.55742143 22.76953125 74.6015625 C23.16470059 76.054237 23.55982212 77.50692451 23.95489502 78.95962524 C25.49705826 84.62850345 27.03970755 90.29724086 28.58990479 95.96392822 C29.32523331 98.65255972 30.05792763 101.34188061 30.78752136 104.03207397 C31.45138441 106.47980669 32.11907376 108.92650598 32.79121399 111.37197876 C33.08368515 112.45417694 33.37615631 113.53637512 33.67749023 114.65136719 C33.93425034 115.5927655 34.19101044 116.53416382 34.45555115 117.50408936 C35 120 35 120 35 124 C12.23 124 -10.54 124 -34 124 C-32.76535208 117.82676042 -31.51561861 111.83137654 -29.84765625 105.7890625 C-29.63558533 105.01060974 -29.4235144 104.23215698 -29.20501709 103.43011475 C-28.49455759 100.82737796 -27.77875103 98.22614852 -27.0625 95.625 C-26.55095532 93.75864551 -26.03948309 91.89227115 -25.52807617 90.02587891 C-20.55393692 71.90550144 -15.50951776 53.80436092 -10.46189499 35.70433807 C-9.81156324 33.3716399 -9.16184438 31.03877172 -8.51223755 28.70587158 C-7.48160233 25.00544259 -6.44872467 21.30564652 -5.41410065 17.60633087 C-5.02838264 16.22606678 -4.6433491 14.84561122 -4.25902557 13.46495819 C-3.73036177 11.56643161 -3.19887424 9.66869199 -2.66723633 7.77099609 C-2.36811844 6.70013763 -2.06900055 5.62927917 -1.76081848 4.52597046 C-1 2 -1 2 0 0 Z " fill="#0F0F0F" transform="translate(537,387)"/>
<path d="M0 0 C2.96968084 4.45452125 2.34903947 8.90576317 1.5 14 C1.335 14.66 1.17 15.32 1 16 C0.01 16 -0.98 16 -2 16 C-1.34 10.72 -0.68 5.44 0 0 Z " fill="#E9E8E9" transform="translate(230,430)"/>
<path d="M0 0 C0.99 0 1.98 0 3 0 C2.34 2.97 1.68 5.94 1 9 C0.34 9 -0.32 9 -1 9 C-0.67 10.32 -0.34 11.64 0 13 C-0.99 13 -1.98 13 -3 13 C-2.68991116 11.39536551 -2.37683713 9.79130769 -2.0625 8.1875 C-1.88847656 7.29417969 -1.71445312 6.40085937 -1.53515625 5.48046875 C-1 3 -1 3 0 0 Z " fill="#181818" transform="translate(518,454)"/>
<path d="M0 0 C0.66 0.33 1.32 0.66 2 1 C2.6328125 3.06640625 2.6328125 3.06640625 3.125 5.5625 C3.29257812 6.38878906 3.46015625 7.21507812 3.6328125 8.06640625 C3.75398437 8.70449219 3.87515625 9.34257813 4 10 C4.66 10 5.32 10 6 10 C6 10.66 6 11.32 6 12 C5.01 12 4.02 12 3 12 C2.29773859 10.75823305 1.61370891 9.50614401 0.9375 8.25 C0.36322266 7.20585938 0.36322266 7.20585938 -0.22265625 6.140625 C-1.1312406 3.63859372 -0.88336837 2.4667645 0 0 Z " fill="#171717" transform="translate(786,626)"/>
<path d="M0 0 C1.47118907 3.82509158 0.45442741 6.28312995 -1 10 C-1.33 10.66 -1.66 11.32 -2 12 C-2.66 12 -3.32 12 -4 12 C-3.71905418 10.1858073 -3.42493567 8.37364999 -3.125 6.5625 C-2.96257812 5.55316406 -2.80015625 4.54382813 -2.6328125 3.50390625 C-2.42398437 2.67761719 -2.21515625 1.85132813 -2 1 C-1.34 0.67 -0.68 0.34 0 0 Z " fill="#171717" transform="translate(405,588)"/>
<path d="M0 0 C1.26132231 3.78396692 0.91214879 6.14090895 0 10 C-2.05078125 11.21484375 -2.05078125 11.21484375 -4 12 C-3.71788123 10.3733152 -3.42397625 8.74867104 -3.125 7.125 C-2.96257812 6.22007812 -2.80015625 5.31515625 -2.6328125 4.3828125 C-2 2 -2 2 0 0 Z " fill="#EAEAEA" transform="translate(467,472)"/>
<path d="M0 0 C0.66 0.33 1.32 0.66 2 1 C-0.20979308 3.81939117 -2.40062046 6.53058944 -5 9 C-5.99 8.67 -6.98 8.34 -8 8 C-5.33333333 5.33333333 -2.66666667 2.66666667 0 0 Z " fill="#E5E5E5" transform="translate(382,595)"/>
<path d="M0 0 C0.66 0 1.32 0 2 0 C1.67 2.64 1.34 5.28 1 8 C0.34 8 -0.32 8 -1 8 C-1.33 9.32 -1.66 10.64 -2 12 C-3.30532548 9.38934904 -2.78282536 8.2445219 -2.125 5.4375 C-1.94195312 4.63183594 -1.75890625 3.82617188 -1.5703125 2.99609375 C-1 1 -1 1 0 0 Z " fill="#171717" transform="translate(401,602)"/>
<path d="M0 0 C2.02558881 3.34939881 2.21738987 5.86962551 2.125 9.75 C2.10695313 10.73484375 2.08890625 11.7196875 2.0703125 12.734375 C2.04710937 13.48203125 2.02390625 14.2296875 2 15 C1.67 15 1.34 15 1 15 C0.67 12.69 0.34 10.38 0 8 C-0.33 8 -0.66 8 -1 8 C-1.125 2.25 -1.125 2.25 0 0 Z " fill="#151515" transform="translate(783,348)"/>
<path d="M0 0 C-0.33 2.97 -0.66 5.94 -1 9 C-1.99 9 -2.98 9 -4 9 C-3.4140625 2.84765625 -3.4140625 2.84765625 -3 1 C-1 0 -1 0 0 0 Z " fill="#191919" transform="translate(704,622)"/>
<path d="M0 0 C1.10493755 3.31481265 1.05432279 5.66131116 0 9 C-0.99 9.66 -1.98 10.32 -3 11 C-2.69217504 9.35328588 -2.37860766 7.70764424 -2.0625 6.0625 C-1.88847656 5.14597656 -1.71445312 4.22945312 -1.53515625 3.28515625 C-1 1 -1 1 0 0 Z " fill="#161616" transform="translate(486,576)"/>
<path d="M0 0 C0.66 0 1.32 0 2 0 C2.66 2.97 3.32 5.94 4 9 C3.01 9.33 2.02 9.66 1 10 C0 3.375 0 3.375 0 0 Z " fill="#ECECEC" transform="translate(616,411)"/>
<path d="M0 0 C0.66 0.33 1.32 0.66 2 1 C1.67 3.64 1.34 6.28 1 9 C0.01 9.33 -0.98 9.66 -2 10 C-1.34 6.7 -0.68 3.4 0 0 Z " fill="#1A1A1A" transform="translate(532,403)"/>
<path d="M0 0 C1.32 0.33 2.64 0.66 4 1 C4.33 2.98 4.66 4.96 5 7 C4.01 7 3.02 7 2 7 C1.34 4.69 0.68 2.38 0 0 Z " fill="#E7E7E7" transform="translate(498,325)"/>
<path d="M0 0 C2.475 0.495 2.475 0.495 5 1 C5 2.65 5 4.3 5 6 C4.01 6 3.02 6 2 6 C1.34 4.02 0.68 2.04 0 0 Z " fill="#F1F1F1" transform="translate(686,312)"/>
<path d="M0 0 C0.99 0 1.98 0 3 0 C3.33 2.31 3.66 4.62 4 7 C3.01 6.67 2.02 6.34 1 6 C0.67 4.02 0.34 2.04 0 0 Z " fill="#1A1A1A" transform="translate(560,474)"/>
<path d="M0 0 C0.99 0.33 1.98 0.66 3 1 C2.67 2.98 2.34 4.96 2 7 C1.01 7.33 0.02 7.66 -1 8 C-0.67 5.36 -0.34 2.72 0 0 Z " fill="#1C1C1C" transform="translate(393,634)"/>
<path d="M0 0 C0.66 0 1.32 0 2 0 C2 2.31 2 4.62 2 7 C0.02 7.99 0.02 7.99 -2 9 C-1.34 6.03 -0.68 3.06 0 0 Z " fill="#E5E5E5" transform="translate(452,521)"/>
<path d="M0 0 C0.66 0.33 1.32 0.66 2 1 C3.26229508 5.47540984 3.26229508 5.47540984 2 8 C1.34 8 0.68 8 0 8 C-1.125 2.25 -1.125 2.25 0 0 Z " fill="#EDEDED" transform="translate(541,388)"/>
<path d="M0 0 C0.99 0.33 1.98 0.66 3 1 C2.67 2.98 2.34 4.96 2 7 C1.34 7 0.68 7 0 7 C-1.125 2.25 -1.125 2.25 0 0 Z " fill="#161616" transform="translate(537,387)"/>
<path d="M0 0 C2 4 2 4 1.125 6.75 C0.75375 7.4925 0.3825 8.235 0 9 C-0.66 9 -1.32 9 -2 9 C-1.34 6.03 -0.68 3.06 0 0 Z " fill="#1A1A1A" transform="translate(512,475)"/>
<path d="M0 0 C0.66 0.99 1.32 1.98 2 3 C1.25 4.9375 1.25 4.9375 0 7 C-1.32 7.33 -2.64 7.66 -4 8 C-2.68 5.36 -1.36 2.72 0 0 Z " fill="#ECECEC" transform="translate(326,434)"/>
</svg>
